<svg width="15" height="7" viewBox="0 0 15 7" fill="none" xmlns="http://www.w3.org/2000/svg">
<path d="M11.3318 0.339155C11.1597 0.451515 11.0755 0.641123 11.1071 0.848287C11.1316 1.0098 11.1632 1.04492 12.171 2.05616L13.2103 3.10251L7.27277 3.10953C1.33525 3.12007 1.33174 3.12007 1.23693 3.1938C1.06137 3.32372 0.998169 3.43959 0.998169 3.6292C0.998169 3.8188 1.06137 3.93468 1.23693 4.06459C1.33174 4.13833 1.33525 4.13833 7.27277 4.14886L13.2103 4.15588L12.171 5.20224C11.1632 6.21348 11.1316 6.24859 11.1071 6.41011C11.0579 6.72612 11.2896 7 11.6057 7C11.6899 7 11.7953 6.98244 11.8374 6.96137C11.9146 6.91924 14.822 4.05757 14.9133 3.93468C14.9905 3.82583 15.0221 3.62569 14.9835 3.47821C14.9554 3.36936 14.692 3.09198 13.4385 1.84548C12.6064 1.02034 11.8901 0.328621 11.8514 0.304043C11.7215 0.230307 11.4652 0.247863 11.3318 0.339155Z" fill="white"/>
</svg>
