<svg width="7" height="15" viewBox="0 0 7 15" fill="none" xmlns="http://www.w3.org/2000/svg">
<path d="M0.339159 10.8336C0.451519 10.6616 0.641127 10.5773 0.84829 10.6089C1.00981 10.6335 1.04492 10.6651 2.05616 11.6728L3.10251 12.7121L3.10954 6.7746C3.12007 0.83708 3.12007 0.833569 3.19381 0.738765C3.32372 0.563202 3.43959 0.5 3.6292 0.5C3.81881 0.5 3.93468 0.563202 4.0646 0.738765C4.13833 0.833569 4.13833 0.83708 4.14887 6.7746L4.15589 12.7121L5.20224 11.6728C6.21348 10.6651 6.24859 10.6335 6.41011 10.6089C6.72612 10.5597 7 10.7915 7 11.1075C7 11.1918 6.98244 11.2971 6.96138 11.3392C6.91924 11.4165 4.05757 14.3238 3.93468 14.4151C3.82583 14.4923 3.62569 14.5239 3.47822 14.4853C3.36937 14.4572 3.09198 14.1939 1.84549 12.9404C1.02034 12.1082 0.328625 11.3919 0.304047 11.3533C0.23031 11.2234 0.247867 10.967 0.339159 10.8336Z" fill="#443E3E"/>
</svg>
