<svg width="8" height="7" viewBox="0 0 8 7" fill="none" xmlns="http://www.w3.org/2000/svg">
<path d="M5.00187 2.47768C5.98716 1.49303 6.84282 0.668077 6.9033 0.644403C7.08439 0.573643 7.3985 0.589397 7.5627 0.677494C7.89528 0.855933 8.05438 1.20265 7.98334 1.5942C7.95638 1.74276 7.70781 2.00789 5.81161 3.91008C4.63392 5.09156 3.63121 6.07981 3.5834 6.10621C3.41726 6.19792 3.18884 6.22476 2.98853 6.17605C2.8099 6.13257 2.6625 6.00069 1.47848 4.82502C0.756799 4.10845 0.128323 3.44869 0.0819172 3.35892C-0.10001 3.00714 0.0327848 2.52785 0.364573 2.33863C0.618373 2.19394 0.755215 2.17044 0.997755 2.22989C1.18839 2.27662 1.29655 2.36991 2.20874 3.27456L3.21039 4.26792L5.00187 2.47768Z" fill="#443E3E"/>
</svg>
