<svg width="25" height="25" viewBox="0 0 25 25" fill="none" xmlns="http://www.w3.org/2000/svg">
<path d="M19.025 16.548H9.49279C9.39475 16.5481 9.29969 16.5144 9.22353 16.4527C9.14736 16.3909 9.09473 16.3049 9.07443 16.209L6.65386 4.76135H2.54938V3.90625H7.00017C7.09817 3.90628 7.19318 3.93998 7.2693 4.0017C7.34542 4.06342 7.39803 4.14942 7.41832 4.2453L9.83932 15.6929H19.025C19.3449 15.6938 19.6557 15.5871 19.9077 15.3901C20.1597 15.1931 20.3382 14.9171 20.4146 14.6065L22.064 7.93249C22.0785 7.87383 22.0794 7.81266 22.0668 7.7536C22.0541 7.69453 22.0282 7.63912 21.9909 7.59155C21.9537 7.54398 21.9061 7.50549 21.8518 7.47901C21.7976 7.45252 21.7379 7.43873 21.6775 7.43867L8.09367 7.43867L7.91283 6.58357L21.6758 6.58357C21.8662 6.5833 22.0541 6.62638 22.2253 6.70956C22.3965 6.79273 22.5465 6.9138 22.6639 7.06359C22.7814 7.21339 22.8632 7.38796 22.9031 7.57407C22.943 7.76018 22.94 7.95293 22.8943 8.13771L21.2446 14.8116C21.1228 15.3079 20.8377 15.7489 20.4352 16.0638C20.0327 16.3787 19.5361 16.5492 19.025 16.548Z" fill="#E81212"/>
<path d="M8.09367 7.43867L9.83932 15.6929H19.025C19.3449 15.6938 19.6557 15.5871 19.9077 15.3901C20.1597 15.1931 20.3382 14.9171 20.4146 14.6065L22.064 7.93249C22.0785 7.87383 22.0794 7.81266 22.0668 7.7536C22.0541 7.69453 22.0282 7.63912 21.9909 7.59155C21.9537 7.54398 21.9061 7.50549 21.8518 7.47901C21.7976 7.45252 21.7379 7.43873 21.6775 7.43867L8.09367 7.43867Z" fill="#E81212"/>
<path d="M11.942 21.0937C11.5897 21.0937 11.2453 20.9893 10.9523 20.7935C10.6594 20.5978 10.431 20.3195 10.2962 19.994C10.1614 19.6685 10.1261 19.3103 10.1949 18.9647C10.2636 18.6192 10.4333 18.3018 10.6825 18.0527C10.9316 17.8035 11.2491 17.6339 11.5946 17.5652C11.9402 17.4965 12.2984 17.5318 12.6239 17.6666C12.9494 17.8015 13.2276 18.0299 13.4233 18.3228C13.619 18.6158 13.7235 18.9602 13.7234 19.3126C13.7229 19.7848 13.535 20.2376 13.201 20.5715C12.8671 20.9054 12.4143 21.0932 11.942 21.0937ZM11.942 18.3861C11.7588 18.3861 11.5798 18.4404 11.4274 18.5422C11.2751 18.6439 11.1564 18.7886 11.0863 18.9578C11.0162 19.1271 10.9978 19.3133 11.0335 19.493C11.0693 19.6727 11.1575 19.8377 11.287 19.9673C11.4165 20.0968 11.5815 20.1851 11.7612 20.2208C11.9409 20.2566 12.1271 20.2383 12.2964 20.1682C12.4656 20.0981 12.6103 19.9794 12.7121 19.8271C12.8139 19.6748 12.8683 19.4958 12.8683 19.3126C12.868 19.067 12.7704 18.8316 12.5967 18.6579C12.4231 18.4843 12.1876 18.3864 11.942 18.3861Z" fill="#E81212"/>
<path d="M11.942 18.3861C11.7588 18.3861 11.5798 18.4404 11.4274 18.5422C11.2751 18.6439 11.1564 18.7886 11.0863 18.9578C11.0162 19.1271 10.9978 19.3133 11.0335 19.493C11.0693 19.6727 11.1575 19.8377 11.287 19.9673C11.4165 20.0968 11.5815 20.1851 11.7612 20.2208C11.9409 20.2566 12.1271 20.2383 12.2964 20.1682C12.4656 20.0981 12.6103 19.9794 12.7121 19.8271C12.8139 19.6748 12.8683 19.4958 12.8683 19.3126C12.868 19.067 12.7704 18.8316 12.5967 18.6579C12.4231 18.4843 12.1876 18.3864 11.942 18.3861Z" fill="#E81212"/>
<path d="M18.057 21.0938C17.7046 21.0939 17.3601 20.9896 17.067 20.7939C16.774 20.5983 16.5455 20.3201 16.4105 19.9946C16.2756 19.6691 16.2402 19.3109 16.3089 18.9653C16.3775 18.6197 16.5471 18.3022 16.7962 18.053C17.0454 17.8038 17.3628 17.634 17.7084 17.5652C18.054 17.4965 18.4122 17.5317 18.7378 17.6666C19.0633 17.8014 19.3416 18.0298 19.5373 18.3227C19.7331 18.6157 19.8375 18.9602 19.8375 19.3126C19.8369 19.7847 19.6492 20.2373 19.3154 20.5712C18.9816 20.9051 18.5291 21.093 18.057 21.0938ZM18.057 18.3861C17.8737 18.3859 17.6946 18.4401 17.5421 18.5418C17.3897 18.6434 17.2708 18.788 17.2006 18.9573C17.1303 19.1265 17.1119 19.3127 17.1475 19.4925C17.1831 19.6722 17.2713 19.8373 17.4007 19.967C17.5302 20.0966 17.6953 20.1849 17.8749 20.2208C18.0546 20.2566 18.2409 20.2383 18.4102 20.1683C18.5795 20.0982 18.7243 19.9796 18.8261 19.8272C18.928 19.6749 18.9823 19.4958 18.9824 19.3126C18.9821 19.0672 18.8845 18.8318 18.7111 18.6582C18.5376 18.4846 18.3024 18.3866 18.057 18.3861Z" fill="#E81212"/>
<path d="M18.057 18.3861C17.8737 18.3859 17.6946 18.4401 17.5421 18.5418C17.3897 18.6434 17.2708 18.788 17.2006 18.9573C17.1303 19.1265 17.1119 19.3127 17.1475 19.4925C17.1831 19.6722 17.2713 19.8373 17.4007 19.967C17.5302 20.0966 17.6953 20.1849 17.8749 20.2208C18.0546 20.2566 18.2409 20.2383 18.4102 20.1683C18.5795 20.0982 18.7243 19.9796 18.8261 19.8272C18.928 19.6749 18.9823 19.4958 18.9824 19.3126C18.9821 19.0672 18.8845 18.8318 18.7111 18.6582C18.5376 18.4846 18.3024 18.3866 18.057 18.3861Z" fill="#E81212"/>
</svg>
