<svg width="24" height="24" viewBox="0 0 24 24" fill="none" xmlns="http://www.w3.org/2000/svg">
<path d="M18.264 15.8861H9.11306C9.01895 15.8861 8.92769 15.8538 8.85457 15.7946C8.78145 15.7353 8.73092 15.6527 8.71144 15.5606L6.38769 4.5709H2.44739V3.75H6.72015C6.81423 3.75003 6.90544 3.78238 6.97852 3.84163C7.05159 3.90089 7.1021 3.98344 7.12157 4.07549L9.44573 15.0652H18.264C18.5711 15.066 18.8695 14.9636 19.1114 14.7745C19.3533 14.5854 19.5246 14.3205 19.598 14.0223L21.1815 7.61519C21.1953 7.55888 21.1962 7.50016 21.1841 7.44345C21.1719 7.38675 21.147 7.33355 21.1113 7.28788C21.0755 7.24222 21.0299 7.20527 20.9778 7.17985C20.9256 7.15442 20.8684 7.14118 20.8104 7.14112L7.7699 7.14112L7.5963 6.32023L20.8088 6.32023C20.9915 6.31997 21.1719 6.36133 21.3363 6.44117C21.5006 6.52102 21.6446 6.63725 21.7574 6.78105C21.8701 6.92485 21.9486 7.09244 21.987 7.2711C22.0253 7.44977 22.0224 7.63482 21.9786 7.8122L20.3948 14.2191C20.2779 14.6956 20.0042 15.1189 19.6178 15.4212C19.2314 15.7235 18.7546 15.8873 18.264 15.8861Z" fill="#443E3E"/>
<path d="M13.2245 18.5401V18.5401C13.2246 18.1919 13.1214 17.8516 12.928 17.5621C12.7346 17.2727 12.4597 17.047 12.1381 16.9138C11.8165 16.7805 11.4626 16.7456 11.1212 16.8135C10.7797 16.8814 10.4661 17.049 10.2199 17.2952C9.9737 17.5413 9.80604 17.855 9.73811 18.1964C9.67018 18.5378 9.70502 18.8918 9.83824 19.2134C9.97145 19.535 10.1971 19.8099 10.4865 20.0033C10.776 20.1968 11.1163 20.3 11.4644 20.3V20.25L11.4645 20.3C11.9311 20.2995 12.3784 20.1139 12.7084 19.784C13.0384 19.4541 13.224 19.0067 13.2245 18.5401ZM10.9982 17.8421C11.1313 17.7531 11.2869 17.7042 11.4467 17.7008L11.4644 17.7008C11.6869 17.7011 11.9002 17.7896 12.0575 17.9469C12.2149 18.1043 12.3034 18.3176 12.3036 18.5401L12.3536 18.5401L12.3036 18.5401C12.3036 18.706 12.2544 18.8683 12.1621 19.0063C12.0699 19.1442 11.9388 19.2518 11.7854 19.3153C11.6321 19.3788 11.4633 19.3954 11.3006 19.3629C11.1378 19.3305 10.9883 19.2506 10.8709 19.1332C10.7536 19.0158 10.6736 18.8663 10.6413 18.7035C10.6089 18.5407 10.6255 18.372 10.6891 18.2187C10.7526 18.0653 10.8602 17.9343 10.9982 17.8421Z" fill="#443E3E" stroke="#443E3E" stroke-width="0.1"/>
<path d="M16.8681 17.8417C17.0013 17.7528 17.157 17.704 17.3169 17.7008L17.3345 17.7008C17.5569 17.7013 17.77 17.7899 17.9272 17.9472C18.0844 18.1045 18.1728 18.3178 18.173 18.5401L18.223 18.5401L18.173 18.5401C18.173 18.7061 18.1237 18.8683 18.0314 19.0064C17.9392 19.1444 17.808 19.2519 17.6546 19.3154C17.5012 19.3788 17.3325 19.3954 17.1697 19.3629C17.0069 19.3304 16.8573 19.2504 16.74 19.133C16.6227 19.0155 16.5428 18.8659 16.5106 18.7031C16.4783 18.5402 16.495 18.3715 16.5587 18.2181C16.6223 18.0648 16.73 17.9338 16.8681 17.8417ZM19.0939 18.5401V18.5401C19.094 18.1919 18.9907 17.8516 18.7973 17.5621C18.6039 17.2726 18.329 17.0469 18.0073 16.9137C17.6856 16.7805 17.3317 16.7456 16.9902 16.8136C16.6488 16.8816 16.3351 17.0493 16.089 17.2955C15.8428 17.5417 15.6752 17.8554 15.6074 18.1969C15.5396 18.5384 15.5745 18.8924 15.7079 19.214C15.8412 19.5356 16.0669 19.8105 16.3565 20.0038C16.6461 20.1971 16.9865 20.3002 17.3346 20.3L17.3346 20.25L17.3347 20.3C17.8011 20.2993 18.2483 20.1136 18.5781 19.7837C18.9078 19.4538 19.0934 19.0066 19.0939 18.5401Z" fill="#443E3E" stroke="#443E3E" stroke-width="0.1"/>
</svg>
