<svg width="25" height="25" viewBox="0 0 25 25" fill="none" xmlns="http://www.w3.org/2000/svg">
<path d="M7.95336 6.53357L21.6758 6.53357H21.6758L7.95336 6.53357ZM7.95336 6.53357L7.46724 4.23495L7.46723 4.23495C7.44458 4.12786 7.38582 4.0318 7.3008 3.96287C7.21577 3.89393 7.10965 3.85629 7.00019 3.85625H7.00017H2.54938H2.49938V3.90625V4.76135V4.81135H2.54938H6.61332L9.02551 16.2193L9.07443 16.209L9.02552 16.2194C9.04818 16.3265 9.10698 16.4226 9.19205 16.4915C9.27712 16.5605 9.3833 16.5981 9.49279 16.598H19.0249H19.025V16.548L7.95336 6.53357ZM8.15535 7.48867L21.6775 7.48867C21.7303 7.48872 21.7824 7.50078 21.8299 7.52395C21.8774 7.54711 21.919 7.58076 21.9516 7.62236C21.9841 7.66396 22.0068 7.71242 22.0179 7.76408C22.0289 7.81572 22.0281 7.86921 22.0155 7.92049L22.0155 7.92053M8.15535 7.48867L22.0155 7.92053M8.15535 7.48867L9.87985 15.6429H19.025H19.0251C19.3338 15.6437 19.6338 15.5408 19.8769 15.3507C20.1201 15.1606 20.2923 14.8943 20.366 14.5946L20.366 14.5945L22.0155 7.92053M8.15535 7.48867L22.0155 7.92053" fill="#443E3E" stroke="#443E3E" stroke-width="0.1"/>
<path d="M13.7734 19.3126V19.3126C13.7735 18.9504 13.6661 18.5963 13.4649 18.2951C13.2637 17.9939 12.9777 17.7591 12.643 17.6204C12.3084 17.4818 11.9402 17.4455 11.5849 17.5161C11.2296 17.5868 10.9033 17.7612 10.6471 18.0173C10.391 18.2734 10.2165 18.5997 10.1459 18.955C10.0752 19.3103 10.1114 19.6785 10.25 20.0131C10.3886 20.3478 10.6234 20.6338 10.9245 20.8351C11.2257 21.0363 11.5798 21.1437 11.942 21.1437V21.0937L11.9421 21.1437C12.4276 21.1432 12.8931 20.9501 13.2364 20.6069C13.5797 20.2636 13.7728 19.7981 13.7734 19.3126ZM11.4552 18.5837C11.5942 18.4909 11.7567 18.4398 11.9236 18.4363L11.942 18.4363C12.1743 18.4366 12.3971 18.529 12.5614 18.6933C12.7256 18.8575 12.8181 19.0803 12.8183 19.3126L12.8683 19.3126L12.8183 19.3126C12.8183 19.4859 12.7669 19.6553 12.6705 19.7993C12.5742 19.9434 12.4374 20.0557 12.2772 20.122C12.1171 20.1883 11.9409 20.2056 11.771 20.1718C11.601 20.1379 11.4449 20.0545 11.3223 19.9319C11.1998 19.8094 11.1164 19.6532 11.0826 19.4832C11.0488 19.3133 11.0661 19.1371 11.1325 18.977C11.1988 18.8169 11.3111 18.68 11.4552 18.5837Z" fill="#443E3E" stroke="#443E3E" stroke-width="0.1"/>
<path d="M17.5699 18.5834C17.709 18.4906 17.8716 18.4396 18.0385 18.4363L18.0569 18.4363C18.2891 18.4368 18.5116 18.5293 18.6757 18.6935C18.8398 18.8578 18.9321 19.0804 18.9324 19.3126C18.9323 19.4859 18.8809 19.6553 18.7846 19.7994C18.6882 19.9435 18.5513 20.0558 18.3911 20.1221C18.2309 20.1884 18.0547 20.2056 17.8847 20.1717C17.7147 20.1378 17.5586 20.0543 17.4361 19.9316C17.3136 19.809 17.2302 19.6528 17.1965 19.4828C17.1628 19.3127 17.1803 19.1365 17.2468 18.9764C17.3132 18.8163 17.4257 18.6795 17.5699 18.5834ZM19.8875 19.3126V19.3126C19.8875 18.9503 19.7801 18.5962 19.5789 18.295C19.3776 17.9938 19.0916 17.759 18.7569 17.6204C18.4222 17.4817 18.0539 17.4455 17.6986 17.5162C17.3433 17.5869 17.017 17.7614 16.7609 18.0176C16.5048 18.2738 16.3304 18.6002 16.2598 18.9555C16.1892 19.3109 16.2256 19.6791 16.3644 20.0138C16.5031 20.3484 16.738 20.6344 17.0393 20.8355C17.3405 21.0367 17.6947 21.1439 18.057 21.1438L18.057 21.0938L18.057 21.1438C18.5424 21.143 19.0076 20.9498 19.3508 20.6066C19.6939 20.2633 19.8869 19.798 19.8875 19.3126Z" fill="#443E3E" stroke="#443E3E" stroke-width="0.1"/>
</svg>
