<svg width="25" height="25" viewBox="0 0 25 25" fill="none" xmlns="http://www.w3.org/2000/svg">
<path d="M7.41754 4.09569C6.67186 4.22553 5.77038 4.61507 5.18793 5.05654C4.20112 5.80221 3.46657 6.95968 3.16237 8.23215C2.99913 8.92959 2.95091 9.9869 3.05478 10.6621C3.3256 12.428 4.37919 14.1048 6.43072 16.0339C7.19124 16.7499 7.72174 17.2173 9.88086 19.076C11.209 20.2223 11.8768 20.7714 12.0177 20.8381C12.3071 20.9791 12.6929 20.9791 12.9823 20.8418C13.2605 20.7046 17.2152 17.3064 18.5544 16.0488C20.606 14.1234 21.6744 12.428 21.9452 10.6621C22.0491 9.9869 22.0009 8.92959 21.8376 8.23215C21.5334 6.95968 20.7989 5.80221 19.8121 5.05654C19.2148 4.60394 18.3207 4.22182 17.5454 4.09569C17.1262 4.0252 16.2692 4.0252 15.8537 4.09569C14.7036 4.29602 13.6241 4.93411 12.8116 5.90238C12.6521 6.09158 12.5148 6.24739 12.5 6.24739C12.4852 6.24739 12.3479 6.09158 12.1884 5.90238C11.3759 4.93411 10.2964 4.29602 9.14632 4.09569C8.74566 4.02891 7.8182 4.02891 7.41754 4.09569ZM9.27245 5.29767C9.63231 5.40155 10.2333 5.69834 10.5152 5.9098C10.864 6.17319 11.3314 6.65918 11.5837 7.01903C11.7098 7.20082 11.8582 7.41599 11.9138 7.49389C12.1921 7.88713 12.8079 7.88713 13.0862 7.49389C13.1418 7.41599 13.2902 7.20082 13.4163 7.01903C13.6686 6.65918 14.136 6.17319 14.4848 5.9098C14.7741 5.69463 15.3714 5.40155 15.7461 5.29396C16.0058 5.21977 16.1245 5.20864 16.7107 5.20864C17.4415 5.21235 17.6863 5.25687 18.2502 5.48317C19.5004 5.99141 20.4353 7.18227 20.7581 8.67733C20.8545 9.12622 20.8582 10.3059 20.7618 10.7548C20.4094 12.3946 19.3001 13.8674 16.6661 16.2009C15.2972 17.414 12.5186 19.7697 12.4777 19.7549C12.4221 19.7326 9.20568 16.9762 8.32645 16.1934C5.68505 13.8488 4.59436 12.3946 4.23822 10.7548C4.14176 10.3059 4.14547 9.12622 4.24193 8.67733C4.61662 6.95226 5.75925 5.69092 7.30253 5.30509C7.71432 5.19751 7.75142 5.19751 8.40064 5.20864C8.8755 5.21606 9.04986 5.23461 9.27245 5.29767Z" fill="#E81212"/>
<path d="M9.27245 5.29767C9.63231 5.40155 10.2333 5.69834 10.5152 5.9098C10.864 6.17319 11.3314 6.65918 11.5837 7.01903C11.7098 7.20082 11.8582 7.41599 11.9138 7.49389C12.1921 7.88713 12.8079 7.88713 13.0862 7.49389C13.1418 7.41599 13.2902 7.20082 13.4163 7.01903C13.6686 6.65918 14.136 6.17319 14.4848 5.9098C14.7741 5.69463 15.3714 5.40155 15.7461 5.29396C16.0058 5.21977 16.1245 5.20864 16.7107 5.20864C17.4415 5.21235 17.6863 5.25687 18.2502 5.48317C19.5004 5.99141 20.4353 7.18227 20.7581 8.67733C20.8545 9.12622 20.8582 10.3059 20.7618 10.7548C20.4094 12.3946 19.3001 13.8674 16.6661 16.2009C15.2972 17.414 12.5186 19.7697 12.4777 19.7549C12.4221 19.7326 9.20568 16.9762 8.32645 16.1934C5.68505 13.8488 4.59436 12.3946 4.23822 10.7548C4.14176 10.3059 4.14547 9.12622 4.24193 8.67733C4.61662 6.95226 5.75925 5.69092 7.30253 5.30509C7.71432 5.19751 7.75142 5.19751 8.40064 5.20864C8.8755 5.21606 9.04986 5.23461 9.27245 5.29767Z" fill="#E81212"/>
</svg>
