<svg width="14" height="14" viewBox="0 0 14 14" fill="none" xmlns="http://www.w3.org/2000/svg">
<g clip-path="url(#clip0_317_41180)">
<path d="M8.58047 0.0410156C7.92969 0.19961 7.36641 0.724609 7.14766 1.37539L7.07656 1.58594H3.69961C-0.0628906 1.58594 0.205078 1.57227 0.065625 1.77461C0.0164062 1.84844 0 1.90859 0 2.01797C0 2.19297 0.0492187 2.29688 0.183203 2.39805L0.281641 2.47461L3.68594 2.48828L7.0875 2.50195L7.13398 2.65234C7.32812 3.27852 7.85313 3.79531 8.50391 3.99766C8.67891 4.05234 8.76641 4.06055 9.10547 4.06055C9.47734 4.06055 9.51562 4.05508 9.74258 3.97305C10.0816 3.85273 10.2621 3.73789 10.5273 3.47266C10.7898 3.21016 10.9375 2.97773 11.0277 2.68789L11.0879 2.49102L12.4059 2.48281C13.6937 2.47461 13.7238 2.47461 13.8004 2.41719C14.0656 2.22031 14.0738 1.82656 13.8141 1.65156C13.7457 1.60234 13.6473 1.59961 12.4168 1.58594L11.0961 1.57227L11.0332 1.39453C10.8035 0.719141 10.2566 0.205078 9.59492 0.0437503C9.37344 -0.0109372 8.80195 -0.0109372 8.58047 0.0410156ZM9.30234 0.905078C9.65508 0.981641 9.95859 1.21953 10.1199 1.54766C10.2348 1.78008 10.2621 2.11914 10.1855 2.3543C9.95859 3.0625 9.14102 3.38516 8.51484 3.01875C8.36992 2.93398 8.14297 2.69336 8.06641 2.5457C7.73281 1.89219 8.11562 1.09102 8.8457 0.913281C9.02344 0.869531 9.12461 0.866797 9.30234 0.905078Z" fill="#E81212"/>
<path d="M4.51172 4.9875C4.1043 5.075 3.76523 5.2582 3.47266 5.54805C3.2293 5.79141 3.08437 6.01836 2.97773 6.32734L2.90117 6.54883L1.57773 6.5625C0.363672 6.57617 0.251563 6.57891 0.183203 6.62539C-0.065625 6.78672 -0.065625 7.21328 0.183203 7.37461C0.251563 7.42109 0.363672 7.42383 1.58047 7.4375L2.90391 7.45117L2.95039 7.60156C3.11719 8.14023 3.49453 8.58047 4.00586 8.83203C4.33125 8.99336 4.52266 9.03711 4.92188 9.03711C5.31836 9.03711 5.52891 8.98242 5.88438 8.79922C6.34648 8.56133 6.75391 8.05273 6.88789 7.55234L6.9207 7.4375H10.3168C13.6582 7.4375 13.7156 7.4375 13.8031 7.38281C13.9344 7.30078 14 7.17773 14 7C14 6.82227 13.9344 6.69922 13.8031 6.61719C13.7156 6.5625 13.6582 6.5625 10.3168 6.5625H6.9207L6.88789 6.44492C6.84687 6.28633 6.69102 5.9582 6.60078 5.83242C6.31641 5.44141 5.91992 5.15703 5.47422 5.02852C5.23359 4.95742 4.75234 4.93828 4.51172 4.9875ZM5.21992 5.90352C5.44688 5.97461 5.60547 6.07305 5.75039 6.23438C6.15508 6.68281 6.15508 7.31719 5.75039 7.76562C5.60547 7.92695 5.44688 8.02539 5.21992 8.09648C4.69492 8.26055 4.12617 7.99258 3.87188 7.46484C3.79258 7.30078 3.78711 7.26523 3.78711 7C3.78711 6.73477 3.79258 6.69922 3.87188 6.53516C4.12617 6.00469 4.69219 5.73945 5.21992 5.90352Z" fill="#E81212"/>
<path d="M8.65431 9.96403C7.92423 10.1363 7.34728 10.6613 7.134 11.3476L7.08752 11.498L3.68322 11.5117C0.281657 11.5254 0.276188 11.5254 0.199626 11.5828C-0.0847492 11.7933 -0.0683429 12.2281 0.22697 12.3703C0.31447 12.4113 0.623454 12.414 3.69963 12.414H7.07658L7.14767 12.6273C7.36642 13.2808 7.93244 13.8031 8.59416 13.959C8.82658 14.0136 9.36525 14.0136 9.59494 13.9562C10.2621 13.7949 10.8528 13.2316 11.0469 12.5781L11.0906 12.4277L12.4168 12.414C13.6473 12.4004 13.7457 12.3976 13.8141 12.3484C14.0738 12.1734 14.0656 11.7797 13.8004 11.5828C13.7238 11.5254 13.6938 11.5254 12.4059 11.5172L11.0879 11.509L11.0278 11.3121C10.9375 11.0195 10.7899 10.7898 10.5274 10.5273C10.2567 10.2593 10.0762 10.1445 9.74259 10.0269C9.53478 9.95583 9.45548 9.94216 9.16017 9.93669C8.93322 9.92848 8.76369 9.93942 8.65431 9.96403ZM9.54845 10.9293C9.85744 11.0742 10.0817 11.3285 10.1856 11.6457C10.2211 11.7523 10.2293 11.8535 10.2211 12.0312C10.2129 12.2336 10.1965 12.2992 10.1172 12.4578C9.95041 12.7968 9.64142 13.032 9.26134 13.1004C8.92228 13.1633 8.54767 13.0375 8.28517 12.7722C7.84767 12.332 7.834 11.6539 8.24963 11.2082C8.50939 10.9293 8.76369 10.8226 9.13283 10.8363C9.32697 10.8418 9.39806 10.8582 9.54845 10.9293Z" fill="#E81212"/>
</g>
<defs>
<clipPath id="clip0_317_41180">
<rect width="14" height="14" fill="white"/>
</clipPath>
</defs>
</svg>
