<svg width="30" height="30" viewBox="0 0 30 30" fill="none" xmlns="http://www.w3.org/2000/svg">
<path d="M17.6076 8.17969H12.3985C10.0749 8.17969 8.18762 10.067 8.18762 12.3906V17.5997C8.18762 19.9233 10.0749 21.8106 12.3985 21.8106H17.6076C19.9313 21.8106 21.8185 19.9233 21.8185 17.5997V12.3906C21.8185 10.067 19.9313 8.17969 17.6076 8.17969ZM20.2967 17.6051C20.2967 19.0888 19.0913 20.2997 17.6022 20.2997H12.3931C10.9094 20.2997 9.69853 19.0942 9.69853 17.6051V12.3961C9.69853 10.9124 10.904 9.70151 12.3931 9.70151H17.6022C19.0858 9.70151 20.2967 10.907 20.2967 12.3961V17.6051Z" fill="white"/>
<path d="M15.0006 11.5127C13.0806 11.5127 11.5151 13.0781 11.5151 14.9981C11.5151 16.9181 13.0806 18.4836 15.0006 18.4836C16.9206 18.4836 18.486 16.9181 18.486 14.9981C18.486 13.0781 16.9206 11.5127 15.0006 11.5127ZM15.0006 17.1145C13.8333 17.1145 12.8842 16.1654 12.8842 14.9981C12.8842 13.8309 13.8333 12.8818 15.0006 12.8818C16.1679 12.8818 17.117 13.8309 17.117 14.9981C17.117 16.1654 16.1679 17.1145 15.0006 17.1145Z" fill="white"/>
<path d="M18.7513 11.8919C19.0724 11.8398 19.2905 11.5373 19.2384 11.2162C19.1864 10.895 18.8839 10.6769 18.5628 10.729C18.2416 10.781 18.0235 11.0836 18.0756 11.4047C18.1276 11.7258 18.4301 11.9439 18.7513 11.8919Z" fill="white"/>
</svg>
