<svg width="20" height="20" viewBox="0 0 20 20" fill="none" xmlns="http://www.w3.org/2000/svg">
<path d="M9.16139 3.2326C7.0869 3.60487 5.51257 5.13089 5.08062 7.18832C5.0039 7.55491 4.97548 8.46996 5.02379 8.95305C5.18008 10.4336 5.7797 11.863 6.87093 13.3493C7.26593 13.8863 7.55295 14.233 8.6925 15.5516C9.04487 15.958 9.41146 16.3899 9.51092 16.5121C9.71837 16.765 9.80078 16.8162 9.99971 16.8162C10.1986 16.8162 10.281 16.765 10.4885 16.5121C10.5879 16.3899 10.9602 15.9523 11.3211 15.5374C12.5402 14.1307 13.0319 13.5169 13.4865 12.8377C14.3504 11.5419 14.8364 10.2688 14.9756 8.95305C15.0239 8.46996 14.9955 7.55207 14.9188 7.19685C14.484 5.18488 13.0347 3.71854 11.0369 3.26954C10.7698 3.20986 10.6334 3.1985 10.0992 3.18713C9.56776 3.1786 9.42851 3.18429 9.16139 3.2326ZM10.3833 4.12491C10.8437 4.15333 11.4831 4.34372 11.9321 4.59096C12.276 4.77851 12.5687 5.00301 12.8841 5.31845C13.4553 5.89248 13.8162 6.55745 13.9924 7.35315C14.0663 7.67995 14.0805 8.55521 14.0236 9.00136C13.8219 10.5331 13.1285 11.917 11.6991 13.6391C11.2671 14.162 10.0196 15.5942 9.99971 15.5942C9.97981 15.5942 8.73228 14.162 8.30033 13.6391C6.87093 11.917 6.16902 10.516 5.97578 8.99568C5.90473 8.43585 5.93031 7.64869 6.03261 7.23947C6.22869 6.46367 6.56686 5.86691 7.12669 5.30708C7.69788 4.73589 8.30033 4.39772 9.07613 4.21016C9.36031 4.14196 9.88603 4.08512 10.0565 4.10217C10.0963 4.10786 10.2441 4.11638 10.3833 4.12491Z" fill="#E81212"/>
<path d="M9.43135 5.49179C8.41685 5.71913 7.64105 6.44946 7.35119 7.45545C7.29435 7.65153 7.28583 7.74246 7.28583 8.17725C7.28583 8.61204 7.29435 8.70298 7.35119 8.89906C7.624 9.84252 8.32875 10.5501 9.26369 10.8229C9.58481 10.9139 10.2356 10.9309 10.5879 10.8542C11.5854 10.6325 12.3584 9.89936 12.6482 8.89906C12.7051 8.70298 12.7136 8.61204 12.7136 8.17725C12.7136 7.74246 12.7051 7.65153 12.6482 7.45545C12.3754 6.51198 11.6735 5.80723 10.7357 5.53158C10.4601 5.45201 9.71553 5.42927 9.43135 5.49179ZM10.5681 6.4722C11.0909 6.64839 11.5371 7.09454 11.7076 7.61174C11.7644 7.79077 11.7758 7.87603 11.7758 8.19146C11.7758 8.51826 11.7673 8.58362 11.7019 8.7655C11.1762 10.2063 9.24664 10.4023 8.45379 9.0923C8.27192 8.79107 8.22361 8.60636 8.22361 8.19146C8.22361 7.87603 8.23497 7.79077 8.29181 7.61459C8.59872 6.67965 9.63596 6.15961 10.5681 6.4722Z" fill="#E81212"/>
<path fill-rule="evenodd" clip-rule="evenodd" d="M10.3833 4.12491C10.8437 4.15333 11.4831 4.34372 11.9321 4.59096C12.276 4.77851 12.5687 5.00301 12.8841 5.31845C13.4553 5.89248 13.8162 6.55745 13.9924 7.35315C14.0663 7.67995 14.0805 8.55521 14.0236 9.00136C13.8219 10.5331 13.1285 11.917 11.6991 13.6391C11.2671 14.162 10.0196 15.5942 9.99971 15.5942C9.97981 15.5942 8.73228 14.162 8.30033 13.6391C6.87093 11.917 6.16902 10.516 5.97578 8.99568C5.90473 8.43585 5.93031 7.64869 6.03261 7.23947C6.22869 6.46367 6.56686 5.86691 7.12669 5.30708C7.69788 4.73589 8.30033 4.39772 9.07613 4.21016C9.36031 4.14196 9.88603 4.08512 10.0565 4.10217C10.0963 4.10786 10.2441 4.11638 10.3833 4.12491ZM7.35119 7.45545C7.64105 6.44946 8.41685 5.71913 9.43135 5.49179C9.71553 5.42927 10.4601 5.45201 10.7357 5.53158C11.6735 5.80723 12.3754 6.51198 12.6482 7.45545C12.7051 7.65153 12.7136 7.74246 12.7136 8.17725C12.7136 8.61204 12.7051 8.70298 12.6482 8.89906C12.3584 9.89936 11.5854 10.6325 10.5879 10.8542C10.2356 10.9309 9.58481 10.9139 9.26369 10.8229C8.32875 10.5501 7.624 9.84252 7.35119 8.89906C7.29435 8.70298 7.28583 8.61204 7.28583 8.17725C7.28583 7.74246 7.29435 7.65153 7.35119 7.45545Z" fill="#E81212"/>
</svg>
