<svg width="30" height="30" viewBox="0 0 30 30" fill="none" xmlns="http://www.w3.org/2000/svg">
<path d="M13.7429 4.84889C10.6312 5.4073 8.26971 7.69634 7.62179 10.7825C7.5067 11.3324 7.46407 12.7049 7.53654 13.4296C7.77098 15.6504 8.6704 17.7945 10.3072 20.0239C10.8998 20.8295 11.3303 21.3496 13.0396 23.3274C13.5682 23.937 14.118 24.5849 14.2672 24.7682C14.5784 25.1476 14.702 25.2243 15.0004 25.2243C15.2988 25.2243 15.4224 25.1476 15.7336 24.7682C15.8828 24.5849 16.4412 23.9285 16.9825 23.3061C18.8112 21.1961 19.5486 20.2754 20.2307 19.2566C21.5265 17.3128 22.2554 15.4032 22.4643 13.4296C22.5368 12.7049 22.4941 11.3281 22.379 10.7953C21.7269 7.77733 19.5529 5.57781 16.5563 4.90431C16.1556 4.81479 15.951 4.79774 15.1496 4.78069C14.3525 4.7679 14.1436 4.77643 13.7429 4.84889ZM15.5759 6.18736C16.2664 6.22999 17.2255 6.51559 17.899 6.88643C18.4148 7.16777 18.8538 7.50452 19.327 7.97767C20.1838 8.83872 20.7251 9.83618 20.9894 11.0297C21.1002 11.5199 21.1216 12.8328 21.0363 13.502C20.7337 15.7996 19.6936 17.8755 17.5495 20.4587C16.9015 21.243 15.0303 23.3914 15.0004 23.3914C14.9706 23.3914 13.0993 21.243 12.4514 20.4587C10.3072 17.8755 9.25438 15.774 8.96452 13.4935C8.85795 12.6538 8.89632 11.473 9.04977 10.8592C9.34389 9.69551 9.85115 8.80036 10.6909 7.96062C11.5477 7.10383 12.4514 6.59658 13.6151 6.31524C14.0413 6.21294 14.8299 6.12769 15.0857 6.15326C15.1453 6.16179 15.367 6.17457 15.5759 6.18736Z" fill="#E81212"/>
<path d="M14.1479 8.23769C12.6261 8.5787 11.4624 9.6742 11.0276 11.1832C10.9424 11.4773 10.9296 11.6137 10.9296 12.2659C10.9296 12.9181 10.9424 13.0545 11.0276 13.3486C11.4368 14.7638 12.494 15.8252 13.8964 16.2344C14.3781 16.3708 15.3542 16.3964 15.8828 16.2813C17.379 15.9488 18.5384 14.849 18.9732 13.3486C19.0584 13.0545 19.0712 12.9181 19.0712 12.2659C19.0712 11.6137 19.0584 11.4773 18.9732 11.1832C18.564 9.76798 17.5111 8.71084 16.1044 8.29737C15.691 8.17801 14.5741 8.14391 14.1479 8.23769ZM15.8529 9.7083C16.6373 9.97258 17.3065 10.6418 17.5623 11.4176C17.6475 11.6862 17.6646 11.814 17.6646 12.2872C17.6646 12.7774 17.6518 12.8754 17.5537 13.1482C16.7651 15.3094 13.8708 15.6035 12.6815 13.6384C12.4087 13.1866 12.3363 12.9095 12.3363 12.2872C12.3363 11.814 12.3533 11.6862 12.4386 11.4219C12.8989 10.0195 14.4548 9.23941 15.8529 9.7083Z" fill="#E81212"/>
<path fill-rule="evenodd" clip-rule="evenodd" d="M15.5759 6.18736C16.2664 6.22999 17.2255 6.51559 17.899 6.88643C18.4148 7.16777 18.8538 7.50452 19.327 7.97767C20.1838 8.83872 20.7251 9.83618 20.9894 11.0297C21.1002 11.5199 21.1216 12.8328 21.0363 13.502C20.7337 15.7996 19.6936 17.8755 17.5495 20.4587C16.9015 21.243 15.0303 23.3914 15.0004 23.3914C14.9706 23.3914 13.0993 21.243 12.4514 20.4587C10.3072 17.8755 9.25438 15.774 8.96452 13.4935C8.85795 12.6538 8.89632 11.473 9.04977 10.8592C9.34389 9.69551 9.85115 8.80036 10.6909 7.96062C11.5477 7.10383 12.4514 6.59658 13.6151 6.31524C14.0413 6.21294 14.8299 6.12769 15.0857 6.15326C15.1453 6.16179 15.367 6.17457 15.5759 6.18736ZM11.0276 11.1832C11.4624 9.6742 12.6261 8.5787 14.1479 8.23769C14.5741 8.14391 15.691 8.17801 16.1044 8.29737C17.5111 8.71084 18.564 9.76798 18.9732 11.1832C19.0584 11.4773 19.0712 11.6137 19.0712 12.2659C19.0712 12.9181 19.0584 13.0545 18.9732 13.3486C18.5384 14.849 17.379 15.9488 15.8828 16.2813C15.3542 16.3964 14.3781 16.3708 13.8964 16.2344C12.494 15.8252 11.4368 14.7638 11.0276 13.3486C10.9424 13.0545 10.9296 12.9181 10.9296 12.2659C10.9296 11.6137 10.9424 11.4773 11.0276 11.1832Z" fill="#E81212"/>
</svg>
