<svg width="30" height="30" viewBox="0 0 30 30" fill="none" xmlns="http://www.w3.org/2000/svg">
<path d="M7.96826 8.39794C7.5752 8.51074 7.31885 8.66796 6.98389 8.9995C6.71387 9.26611 6.64893 9.35156 6.51562 9.63183C6.43018 9.80956 6.35156 10.001 6.34131 10.0591L6.3208 10.1616L10.6309 12.9985C13.0029 14.5571 14.9683 15.8354 14.999 15.832C15.0298 15.832 16.9951 14.5571 19.3706 12.9985L23.6875 10.1684L23.667 10.0625C23.6533 10.0044 23.5747 9.80956 23.4893 9.63183C23.356 9.35156 23.291 9.26611 23.021 8.9995C22.7852 8.76366 22.6484 8.66113 22.4536 8.56542C21.9443 8.31591 22.5391 8.333 14.9854 8.33642C8.5459 8.33642 8.17334 8.33984 7.96826 8.39794Z" fill="#E81212"/>
<path d="M6.25244 15.45C6.25244 19.4251 6.25586 19.6062 6.3208 19.8489C6.35498 19.9856 6.39941 20.1155 6.4165 20.1326C6.43359 20.1497 7.61621 19.2234 9.42773 17.7639C11.8135 15.843 12.3979 15.3543 12.3638 15.3201C12.3091 15.2722 6.29346 11.3074 6.26953 11.3074C6.25928 11.3074 6.25244 13.1736 6.25244 15.45Z" fill="#E81212"/>
<path d="M20.6694 13.3169C18.9844 14.4209 17.6035 15.3335 17.6035 15.3438C17.6001 15.3745 23.52 20.1426 23.561 20.1426C23.5781 20.1426 23.626 20.0571 23.6636 19.9546C23.7354 19.77 23.7354 19.7222 23.7456 16.2461C23.749 14.3081 23.749 12.4077 23.7456 12.0181L23.7354 11.3105L20.6694 13.3169Z" fill="#E81212"/>
<path d="M10.1318 18.4544C8.40231 19.849 6.98385 20.9974 6.98043 21.0111C6.96676 21.0521 7.38375 21.3563 7.59567 21.4554C8.06734 21.6776 7.54098 21.6639 15.0092 21.6639C21.7597 21.6639 21.7905 21.6639 22.0434 21.5921C22.1836 21.5545 22.3852 21.4759 22.4912 21.4212C22.686 21.3153 23.0312 21.035 23.0005 21.0042C22.9868 20.994 16.8686 16.0653 16.7285 15.9525C16.7046 15.9354 16.4516 16.0858 16.0962 16.3216C15.768 16.5404 15.4296 16.7489 15.3476 16.7865C15.1665 16.8651 14.8281 16.8719 14.6538 16.8001C14.5888 16.7728 14.2539 16.5643 13.9155 16.3353C13.5737 16.1097 13.29 15.9217 13.2866 15.9217C13.2797 15.9217 11.8613 17.0633 10.1318 18.4544Z" fill="#E81212"/>
</svg>
