<svg width="30" height="30" viewBox="0 0 30 30" fill="none" xmlns="http://www.w3.org/2000/svg">
<path d="M23.3624 20.0148L23.2781 19.7585C23.0804 19.1689 22.4285 18.5537 21.8279 18.3888L19.6106 17.7827C19.01 17.6198 18.153 17.8395 17.7118 18.2808L16.9098 19.0828C13.9948 18.2936 11.7078 16.0066 10.9204 13.0916L11.7224 12.2896C12.1619 11.8501 12.3816 10.9932 12.2187 10.3908L11.6143 8.17336C11.4514 7.57278 10.8325 6.92092 10.2429 6.72317L9.99017 6.63891C9.39873 6.44116 8.55463 6.64073 8.11517 7.08206L6.914 8.28323C6.69978 8.49563 6.56244 9.10723 6.56244 9.10723C6.52213 12.9195 8.01633 16.5908 10.7116 19.2879C13.3996 21.9759 17.0581 23.4683 20.8575 23.4352C20.8777 23.4352 21.5057 23.3016 21.7199 23.0873L22.9211 21.8861C23.3606 21.4485 23.5583 20.6044 23.3624 20.0148Z" fill="#E81212"/>
</svg>
