<svg width="21" height="20" viewBox="0 0 21 20" fill="none" xmlns="http://www.w3.org/2000/svg">
<g clip-path="url(#clip0_187_45602)">
<path d="M2.11324 3.72654C1.38668 3.90233 0.777301 4.49998 0.562457 5.23826C0.503863 5.43358 0.499957 5.93358 0.50777 10.0625L0.519488 14.668L0.605426 14.9023C0.828082 15.4844 1.30464 15.9609 1.89449 16.1836L2.12105 16.2695L7.82027 16.2812C12.9531 16.289 13.5468 16.2851 13.7382 16.2265C14.4179 16.0312 14.9961 15.4765 15.2109 14.8047C15.2656 14.6367 15.2851 14.3945 15.3007 13.668L15.3242 12.7461L17.6093 13.9922C19.2695 14.9023 19.9414 15.25 20.0586 15.2617C20.207 15.2812 20.2382 15.2695 20.3632 15.1445L20.5 15.0078V10.0039V4.99998L20.3945 4.88279C20.3164 4.79686 20.2382 4.75389 20.1289 4.74217C19.9843 4.72264 19.8242 4.80467 17.6484 5.98826L15.3242 7.25779L15.3007 6.31639C15.2851 5.73436 15.2578 5.31248 15.2265 5.21483C15.0468 4.64451 14.6093 4.12889 14.1015 3.8867C13.6328 3.66404 13.8828 3.67186 7.86324 3.67576C3.5273 3.67967 2.27339 3.68748 2.11324 3.72654ZM13.7382 4.70701C14.0039 4.85545 14.2265 5.10545 14.3281 5.37889C14.4062 5.58983 14.4062 5.64061 14.3984 10.0508L14.3867 14.5117L14.2812 14.707C14.1445 14.9726 13.9218 15.1836 13.664 15.3086L13.4492 15.4101H7.9023H2.35543L2.09371 15.2812C1.79683 15.1367 1.62496 14.9609 1.48043 14.6484L1.37886 14.4336V9.99998C1.37886 5.81639 1.38277 5.55467 1.44918 5.38279C1.53511 5.16014 1.69918 4.94529 1.9023 4.79686C2.22652 4.56248 1.85152 4.5742 7.94136 4.58201L13.5273 4.58983L13.7382 4.70701ZM19.6406 9.99998C19.6406 12.2344 19.6328 14.0625 19.625 14.0625C19.6132 14.0625 18.6367 13.5351 17.457 12.8867L15.3046 11.7109V9.99998V8.28904L17.4453 7.11717C18.6211 6.47264 19.5937 5.94529 19.6132 5.94139C19.6289 5.93748 19.6406 7.76561 19.6406 9.99998Z" fill="#443E3E"/>
</g>
<defs>
<clipPath id="clip0_187_45602">
<rect width="20" height="20" fill="white" transform="translate(0.5)"/>
</clipPath>
</defs>
</svg>
