<svg width="30" height="30" viewBox="0 0 30 30" fill="none" xmlns="http://www.w3.org/2000/svg">
<path d="M22.6551 18.3368C22.6551 18.2793 22.593 18.2793 22.593 18.2217C22.3447 17.7614 21.7861 17.1861 21.0413 16.5532C20.6688 16.2656 20.4826 16.0354 20.3585 15.9204C20.1723 15.6902 20.1723 15.5176 20.2344 15.2875C20.2964 15.1149 20.5447 14.8272 20.9792 14.3094C21.2275 14.0217 21.3516 13.8491 21.5378 13.6765C22.4688 12.5258 22.9033 11.7779 22.7792 11.4327L22.7171 11.3751C22.6551 11.3176 22.593 11.2601 22.4688 11.2601C22.3447 11.2025 22.1585 11.2025 21.9723 11.2601H19.6137C19.5516 11.2601 19.5516 11.2601 19.4275 11.2601C19.3654 11.2601 19.3033 11.2601 19.3033 11.2601H19.2413H19.1792L19.1171 11.3176C19.0551 11.3751 19.0551 11.3751 19.0551 11.4327C18.8068 12.0656 18.4964 12.5834 18.1861 13.1587C17.9999 13.4464 17.8137 13.7341 17.6275 13.9642C17.4413 14.1943 17.3171 14.3669 17.193 14.482C17.0689 14.5971 16.9447 14.6546 16.8827 14.7697C16.8206 14.8272 16.6965 14.8847 16.6965 14.8272C16.6344 14.8272 16.5723 14.8272 16.5723 14.7697C16.5102 14.7121 16.4482 14.6546 16.3861 14.5971C16.324 14.5395 16.324 14.4245 16.262 14.3094C16.262 14.1943 16.262 14.0793 16.262 14.0217C16.262 13.9642 16.262 13.7916 16.262 13.6765C16.262 13.5039 16.262 13.3888 16.262 13.3313C16.262 13.1587 16.262 12.9286 16.262 12.6984C16.262 12.4683 16.262 12.2957 16.262 12.1806C16.262 12.0656 16.262 11.893 16.262 11.7779C16.262 11.6053 16.262 11.4902 16.262 11.4327C16.262 11.3751 16.1999 11.2601 16.1999 11.2025C16.1378 11.145 16.0758 11.0875 16.0137 11.0299C15.9516 10.9724 15.8275 10.9724 15.7654 10.9149C15.4551 10.8573 15.0827 10.7998 14.6482 10.7998C13.6551 10.7998 12.9723 10.8573 12.7241 10.9724C12.5999 11.0299 12.4758 11.0875 12.4137 11.2025C12.2896 11.3176 12.2896 11.3751 12.3517 11.3751C12.662 11.4327 12.9103 11.5477 13.0344 11.7203L13.0965 11.8354C13.1586 11.893 13.1585 12.008 13.2206 12.1806C13.2827 12.3532 13.2827 12.5258 13.2827 12.756C13.2827 13.1012 13.2827 13.4464 13.2827 13.6765C13.2827 13.9642 13.2206 14.1368 13.2206 14.3094C13.2206 14.482 13.1586 14.5971 13.0965 14.6546C13.0344 14.7697 13.0344 14.8272 12.9723 14.8272C12.9723 14.8272 12.9723 14.8847 12.9103 14.8847C12.8482 14.8847 12.7861 14.9423 12.662 14.9423C12.5999 14.9423 12.4758 14.8847 12.4137 14.8272C12.2896 14.7697 12.1654 14.6546 12.1034 14.5395C11.9792 14.4245 11.8551 14.2519 11.731 14.0217C11.6068 13.7916 11.4206 13.5614 11.2965 13.2162L11.1724 12.9861C11.1103 12.871 10.9861 12.6409 10.862 12.3532C10.7379 12.0656 10.6137 11.8354 10.4896 11.5478C10.4275 11.4327 10.3655 11.3751 10.3034 11.3176H10.2413C10.2413 11.3176 10.1792 11.2601 10.1172 11.2601C10.0551 11.2601 9.99305 11.2025 9.93098 11.2025H7.6965C7.44823 11.2025 7.32409 11.2601 7.26202 11.3176L7.19995 11.3751C7.19995 11.3751 7.19995 11.4327 7.19995 11.4902C7.19995 11.5477 7.19995 11.6053 7.26202 11.7203C7.57237 12.4108 7.94478 13.1012 8.31719 13.7916C8.6896 14.4245 9.06202 14.9998 9.31029 15.4025C9.62063 15.8053 9.8689 16.208 10.1792 16.5532C10.4896 16.8984 10.6758 17.1286 10.7379 17.2436C10.862 17.3587 10.9241 17.4162 10.9861 17.4738L11.1724 17.6464C11.2965 17.7614 11.4827 17.9341 11.731 18.1067C11.9792 18.2793 12.2896 18.4519 12.5999 18.6245C12.9103 18.7971 13.2827 18.9121 13.6551 19.0272C14.0896 19.1423 14.462 19.1998 14.8344 19.1423H15.7654C15.9516 19.1423 16.0758 19.0847 16.1999 18.9697L16.262 18.9121C16.262 18.8546 16.324 18.8546 16.324 18.7971C16.324 18.7395 16.324 18.682 16.324 18.5669C16.324 18.3368 16.324 18.1642 16.3861 17.9916C16.4482 17.819 16.4482 17.7039 16.5103 17.5889C16.5723 17.4738 16.6344 17.4162 16.6965 17.3587C16.7585 17.3012 16.8206 17.2436 16.8206 17.2436H16.8827C17.0068 17.1861 17.193 17.2436 17.3171 17.3587C17.5033 17.4738 17.6895 17.6464 17.8137 17.819C17.9378 17.9916 18.124 18.1642 18.3723 18.3943C18.6206 18.6245 18.8068 18.7971 18.9309 18.8546L19.1171 18.9697C19.2413 19.0272 19.3654 19.0847 19.5516 19.1423C19.7378 19.1998 19.8619 19.1998 19.9861 19.1998L22.0964 19.1423C22.2826 19.1423 22.4688 19.0847 22.593 19.0272C22.7171 18.9697 22.7792 18.9121 22.7792 18.7971C22.7792 18.7395 22.7792 18.6245 22.7792 18.5669C22.655 18.4519 22.6551 18.3943 22.6551 18.3368Z" fill="white"/>
</svg>
