<svg width="30" height="30" viewBox="0 0 30 30" fill="none" xmlns="http://www.w3.org/2000/svg">
<path d="M22.2 14.1153C22.2 13.8063 22.1475 13.4456 22.1475 13.0335C22.095 12.6214 22.0424 12.2093 21.9898 11.8487C21.8847 11.4366 21.7271 11.1275 21.4117 10.8699C21.149 10.6123 20.7811 10.4578 20.4132 10.4063C19.2044 10.2517 17.4176 10.2002 15.0001 10.2002C12.5825 10.2002 10.7431 10.2517 9.58691 10.4063C9.21902 10.4578 8.85114 10.6123 8.58837 10.8699C8.3256 11.1275 8.11537 11.4366 8.01026 11.8487C7.90516 12.2093 7.85261 12.5699 7.85261 13.0335C7.80005 13.4456 7.80005 13.8063 7.80005 14.1153C7.80005 14.4244 7.80005 14.785 7.80005 15.3002C7.80005 15.8153 7.80005 16.2275 7.80005 16.485C7.80005 16.7941 7.85261 17.1547 7.85261 17.5669C7.90516 17.979 7.95771 18.3911 8.01026 18.7517C8.11537 19.1638 8.27304 19.4729 8.58837 19.7305C8.85114 19.9881 9.21902 20.1426 9.58691 20.1941C10.7957 20.3487 12.5825 20.4002 15.0001 20.4002C17.4176 20.4002 19.257 20.3487 20.4132 20.1941C20.7811 20.1426 21.149 19.9881 21.4117 19.7305C21.6745 19.4729 21.8847 19.1638 21.9898 18.7517C22.0949 18.3911 22.1475 18.0305 22.1475 17.5669C22.2001 17.1547 22.2 16.7941 22.2 16.485C22.2 16.176 22.2 15.8153 22.2 15.3002C22.2 14.785 22.2 14.3729 22.2 14.1153ZM17.7855 15.7123L13.6336 18.2366C13.5811 18.2881 13.476 18.3396 13.3709 18.3396C13.2657 18.3396 13.2132 18.3396 13.1081 18.2881C12.9504 18.185 12.8453 18.0305 12.8453 17.8244V12.7244C12.8453 12.5184 12.9504 12.3638 13.1081 12.2608C13.2657 12.1578 13.476 12.1578 13.6336 12.2608L17.7855 14.785C17.9431 14.8881 18.0482 15.0426 18.0482 15.1972C18.0482 15.3517 17.9431 15.6093 17.7855 15.7123Z" fill="white"/>
</svg>
