<svg width="50" height="50" viewBox="0 0 50 50" fill="none" xmlns="http://www.w3.org/2000/svg">
<g clip-path="url(#clip0_194_35593)">
<rect width="50" height="50" fill="#FBE0E0"/>
<path d="M13.1437 12.8594C12.8812 13.0234 12.75 13.2695 12.75 13.625C12.75 13.9805 12.8812 14.2266 13.1437 14.3906C13.3133 14.4945 13.4227 14.5 14.8664 14.5C15.725 14.5 16.5234 14.5273 16.6766 14.5547C16.9719 14.6203 17.2125 14.8117 17.3164 15.0687C17.3547 15.1617 18.2023 18.3336 19.2086 22.118C20.6961 27.7289 21.0516 28.9922 21.1172 28.9703C21.1609 28.9594 21.3852 28.8773 21.6094 28.7953C21.8336 28.7187 22.1945 28.6203 22.4023 28.582C22.6156 28.5437 22.7797 28.4945 22.7797 28.4672C22.7742 28.4398 21.9266 25.2789 20.8984 21.4453C19.6242 16.693 18.9734 14.3687 18.8641 14.1555C18.5633 13.5539 18.0164 13.0891 17.3547 12.8648C17.043 12.7555 16.8898 12.75 15.1727 12.75C13.4227 12.75 13.3133 12.7555 13.1437 12.8594Z" fill="url(#paint0_linear_194_35593)"/>
<path d="M31.2664 16.1675C30.7906 16.2988 30.3914 16.4191 30.3805 16.43C30.3696 16.441 30.6649 17.5949 31.0422 19.0003C31.4196 20.4003 31.7258 21.6363 31.7258 21.7457C31.7258 22.0957 31.4852 22.4128 31.1297 22.5332C30.9711 22.5878 30.8071 22.566 30.0742 22.4238L29.2047 22.2488L29.0571 22.3855C28.4719 22.9214 27.9305 23.3699 27.8102 23.4136C27.7336 23.4464 27.5641 23.4683 27.4274 23.4683C27.2196 23.4683 27.1485 23.4355 26.968 23.2605L26.7492 23.0582L26.0602 20.4605C25.6774 19.0332 25.3492 17.841 25.3274 17.8191C25.2836 17.7699 23.4735 18.2402 23.2274 18.366C22.9321 18.5191 22.6094 18.8691 22.4563 19.2082C22.1828 19.8207 22.1719 19.7714 23.4078 24.398C24.0149 26.6675 24.5235 28.5707 24.5399 28.6199C24.5563 28.6746 24.6656 28.7402 24.7969 28.7785C25.3602 28.9261 26.0711 29.3253 26.6399 29.8121L26.9406 30.0691L31.0969 28.9589C33.3828 28.3464 35.3625 27.805 35.4938 27.7558C35.6305 27.7011 35.8492 27.5644 35.9805 27.4441C36.4781 26.9792 36.6696 26.3777 36.5219 25.7269C36.3414 24.9339 34.236 17.141 34.143 16.9332C34.0008 16.5996 33.6508 16.2496 33.2844 16.08C32.7922 15.8449 32.3711 15.8613 31.2664 16.1675Z" fill="url(#paint1_linear_194_35593)"/>
<path d="M27.8447 17.0871C27.3799 17.2074 26.9916 17.3113 26.9807 17.3168C26.9643 17.3277 27.9541 21.0246 27.9869 21.0574C27.9979 21.0684 28.1236 20.9809 28.2658 20.8606C28.408 20.7402 28.583 20.6145 28.6486 20.5762C28.7908 20.5051 29.1572 20.4996 29.458 20.5707C29.5783 20.5981 29.6822 20.609 29.6986 20.5981C29.7205 20.5707 28.7854 17.027 28.7252 16.9285C28.7033 16.8848 28.4244 16.9395 27.8447 17.0871Z" fill="url(#paint2_linear_194_35593)"/>
<path d="M32.1375 30.4414C29.8844 31.0484 28.0414 31.5734 28.0469 31.5953C28.0524 31.6227 28.1234 31.825 28.2 32.0383C28.2766 32.257 28.3695 32.6234 28.4078 32.8477C28.4516 33.1484 28.4953 33.2578 28.5555 33.2578C28.7524 33.2578 36.8024 31.1086 36.9227 31.0211C36.9992 30.9664 37.1195 30.8406 37.1852 30.7367C37.3602 30.4852 37.3383 29.982 37.1469 29.7086C36.9992 29.5008 36.6438 29.3203 36.4031 29.3258C36.3156 29.3312 34.3961 29.8289 32.1375 30.4414Z" fill="url(#paint3_linear_194_35593)"/>
<path d="M22.3579 30.332C21.1821 30.6273 20.143 31.6664 19.8368 32.8531C19.7274 33.2796 19.7219 34.1546 19.8313 34.6195C20.1157 35.8171 21.1821 36.8835 22.3797 37.1679C22.8282 37.2718 23.6704 37.2718 24.1188 37.1679C25.3165 36.8835 26.3829 35.8171 26.6672 34.6195C26.7766 34.1546 26.7711 33.2796 26.6618 32.8531C26.454 32.0601 25.9016 31.2781 25.2126 30.8187C24.6001 30.414 24.1735 30.2828 23.3586 30.2664C22.8938 30.2609 22.5711 30.2773 22.3579 30.332ZM23.6758 33.039C24.3868 33.471 24.0805 34.5703 23.2493 34.5703C22.7844 34.5703 22.429 34.2148 22.429 33.75C22.429 33.2851 22.7844 32.9296 23.2493 32.9296C23.3969 32.9296 23.5665 32.9734 23.6758 33.039Z" fill="url(#paint4_linear_194_35593)"/>
</g>
<defs>
<linearGradient id="paint0_linear_194_35593" x1="12.75" y1="20.8603" x2="22.7797" y2="20.8603" gradientUnits="userSpaceOnUse">
<stop stop-color="#E81212"/>
<stop offset="1" stop-color="#FCCD05"/>
</linearGradient>
<linearGradient id="paint1_linear_194_35593" x1="22.3066" y1="22.994" x2="36.5705" y2="22.994" gradientUnits="userSpaceOnUse">
<stop stop-color="#E81212"/>
<stop offset="1" stop-color="#FCCD05"/>
</linearGradient>
<linearGradient id="paint2_linear_194_35593" x1="26.9805" y1="18.9861" x2="29.699" y2="18.9861" gradientUnits="userSpaceOnUse">
<stop stop-color="#E81212"/>
<stop offset="1" stop-color="#FCCD05"/>
</linearGradient>
<linearGradient id="paint3_linear_194_35593" x1="28.0469" y1="31.2917" x2="37.3044" y2="31.2917" gradientUnits="userSpaceOnUse">
<stop stop-color="#E81212"/>
<stop offset="1" stop-color="#FCCD05"/>
</linearGradient>
<linearGradient id="paint4_linear_194_35593" x1="19.752" y1="33.7556" x2="26.7466" y2="33.7556" gradientUnits="userSpaceOnUse">
<stop stop-color="#E81212"/>
<stop offset="1" stop-color="#FCCD05"/>
</linearGradient>
<clipPath id="clip0_194_35593">
<rect width="50" height="50" rx="25" fill="white"/>
</clipPath>
</defs>
</svg>
