<svg width="50" height="50" viewBox="0 0 50 50" fill="none" xmlns="http://www.w3.org/2000/svg">
<g clip-path="url(#clip0_194_35583)">
<rect width="50" height="50" fill="#FBE0E0"/>
<path d="M16.6428 16.3591C16.1232 16.6763 16.1014 17.5404 16.6154 17.8739C16.7521 17.9614 16.9709 17.9724 19.2295 17.9997C21.5865 18.0271 21.6959 18.0325 21.8818 18.1419C22.467 18.4864 22.467 19.263 21.8818 19.6075C21.6959 19.7169 21.5975 19.7224 18.3545 19.7497C15.2537 19.7771 15.0021 19.7825 14.8654 19.8755C14.3678 20.1982 14.3678 21.0513 14.8654 21.3739C15.0021 21.4669 15.3029 21.4724 19.667 21.4997C24.2334 21.5271 24.3209 21.5271 24.5068 21.6419C25.092 21.9864 25.092 22.763 24.5068 23.1075C24.3209 23.2169 24.2225 23.2224 20.9795 23.2497C17.8787 23.2771 17.6271 23.2825 17.4904 23.3755C16.9928 23.6982 16.9928 24.5513 17.4904 24.8739C17.6217 24.9614 17.8295 24.9724 19.667 24.9997C21.5811 25.0271 21.7014 25.0325 21.8818 25.1419C22.467 25.4864 22.467 26.263 21.8818 26.6075C21.6959 26.7224 21.5975 26.7224 17.917 26.7497C14.3951 26.7771 14.1271 26.7825 13.9904 26.8755C13.4928 27.1982 13.4928 28.0513 13.9904 28.3739C14.1162 28.456 14.3021 28.4779 15.292 28.4997C16.3256 28.5216 16.4623 28.538 16.6318 28.6419C17.217 28.981 17.217 29.7685 16.6373 30.1075C16.4896 30.195 16.3092 30.2224 15.7295 30.2443C14.9365 30.2825 14.7998 30.3318 14.6084 30.6489C14.4607 30.8896 14.4607 31.3654 14.6084 31.606C14.6686 31.7044 14.7943 31.8302 14.8928 31.8904C15.0623 31.9888 15.1717 31.9997 16.4404 31.9997H17.8076L17.9881 32.4044C18.2123 32.8966 18.6553 33.3505 19.1311 33.5693C19.5795 33.7771 20.2959 33.8099 20.8318 33.6458C21.5264 33.438 22.1389 32.9239 22.4615 32.2896L22.6037 31.9997H25.8959H29.1826L29.3631 32.4044C29.5873 32.8966 30.0303 33.3505 30.5061 33.5693C30.9545 33.7771 31.6709 33.8099 32.2068 33.6458C32.9014 33.438 33.5139 32.9239 33.8365 32.2896L33.9787 31.9997H34.9795C35.9201 31.9997 35.9857 31.9943 36.1553 31.8794C36.5545 31.606 36.5271 31.7372 36.9045 28.3794C37.0904 26.6841 37.2436 25.1747 37.249 25.0216C37.249 24.7755 37.1287 24.4747 36.2592 22.506C35.7178 21.2755 35.2256 20.1927 35.1654 20.0997C34.9521 19.7497 34.9467 19.7497 32.2506 19.7497C29.8771 19.7497 29.8115 19.7497 29.8115 19.6458C29.8115 19.5857 29.8717 18.9841 29.9482 18.306C30.0576 17.3599 30.0795 17.0263 30.0357 16.8622C29.9756 16.6544 29.7787 16.4247 29.5545 16.3099C29.467 16.2661 27.6842 16.2497 23.1287 16.2497C16.9326 16.2497 16.8178 16.2497 16.6428 16.3591ZM33.935 21.7568C33.9842 21.8661 34.3506 22.67 34.7443 23.5396L35.4553 25.1255L35.417 25.5029L35.3787 25.8747H33.4811C32.442 25.8747 31.4904 25.8474 31.3756 25.82C31.0912 25.7544 30.9107 25.6177 30.774 25.3552L30.6646 25.1419L30.8342 23.6161C31.0201 21.9591 31.0256 21.9318 31.3975 21.6747C31.5725 21.5599 31.6271 21.5544 32.71 21.5544H33.8365L33.935 21.7568ZM20.7443 30.3646C20.8701 30.4357 21.0068 30.731 21.0068 30.9497C21.0068 31.2122 20.7607 31.6279 20.5037 31.7974C20.0881 32.0654 19.7381 31.9614 19.5795 31.5185C19.4537 31.1521 19.7818 30.5286 20.1865 30.3646C20.3725 30.2935 20.6076 30.2935 20.7443 30.3646ZM32.1193 30.3646C32.2451 30.4357 32.3818 30.731 32.3818 30.9497C32.3818 31.2122 32.1357 31.6279 31.8787 31.7974C31.4631 32.0654 31.1131 31.9614 30.9545 31.5185C30.8287 31.1521 31.1568 30.5286 31.5615 30.3646C31.7475 30.2935 31.9826 30.2935 32.1193 30.3646Z" fill="url(#paint0_linear_194_35583)"/>
<path d="M13.1438 23.3594C12.8813 23.5234 12.75 23.7695 12.75 24.125C12.75 24.4805 12.8813 24.7266 13.1438 24.8906C13.3023 24.9836 13.4227 25 14.0625 25C14.8883 25 15.0578 24.9453 15.2656 24.6063C15.4133 24.3602 15.4133 23.8898 15.2656 23.6438C15.0578 23.3047 14.8883 23.25 14.0625 23.25C13.4227 23.25 13.3023 23.2664 13.1438 23.3594Z" fill="url(#paint1_linear_194_35583)"/>
</g>
<defs>
<linearGradient id="paint0_linear_194_35583" x1="13.6172" y1="24.9999" x2="37.249" y2="24.9999" gradientUnits="userSpaceOnUse">
<stop stop-color="#E81212"/>
<stop offset="1" stop-color="#FCCD05"/>
</linearGradient>
<linearGradient id="paint1_linear_194_35583" x1="12.75" y1="24.125" x2="15.3764" y2="24.125" gradientUnits="userSpaceOnUse">
<stop stop-color="#E81212"/>
<stop offset="1" stop-color="#FCCD05"/>
</linearGradient>
<clipPath id="clip0_194_35583">
<rect width="50" height="50" rx="25" fill="white"/>
</clipPath>
</defs>
</svg>
